<mxfile host="app.diagrams.net" modified="2023-07-06T16:12:22.335Z" agent="Mozilla/5.0 (Windows NT 10.0; Win64; x64) AppleWebKit/537.36 (KHTML, like Gecko) Chrome/114.0.0.0 Safari/537.36" version="21.5.0" etag="CfeSDmm-ad1n3LWmsFIc" type="github">
  <diagram name="PÃ¡gina-1" id="BT7QCfo_oBHoEV8IurMe">
    <mxGraphModel>
      <root>
        <mxCell id="0" />
        <mxCell id="1" parent="0" />
      </root>
    </mxGraphModel>
  </diagram>
</mxfile>
